<svg width="129" height="23" xmlns="http://www.w3.org/2000/svg"><path d="M.501 22V.584h6.621c2.236 0 3.97.513 5.2 1.538a6.013 6.013 0 0 1 1.868 2.586c.376 1.01.564 2.331.564 3.962v5.23c0 2.03-.317 3.627-.952 4.79-.606 1.123-1.455 1.955-2.55 2.497-1.093.542-2.47.813-4.13.813H.501zm1.86-1.567h4.497c4.073.088 6.084-2.159 6.036-6.739V8.875c.048-4.58-1.963-6.821-6.036-6.724H2.361v18.282zm17.52-4.732v-2.314c0-4.385 2.007-6.577 6.02-6.577 4.024 0 6.036 2.192 6.036 6.577V15.7c0 4.375-2.027 6.563-6.08 6.563-3.984 0-5.976-2.188-5.976-6.563zm10.254-.073v-2.153c0-3.428-1.411-5.142-4.234-5.142-2.822 0-4.233 1.714-4.233 5.142v2.153c0 3.408 1.411 5.112 4.233 5.112 2.823 0 4.234-1.704 4.234-5.112zM40.037 22L35.38 7.073h1.831l3.633 12.378 4.175-12.378h1.215l4.175 12.378 3.633-12.378h1.831L51.214 22h-1.406l-4.19-12.056L41.428 22h-1.39zm19.951 0V7.073h1.421l.161 2.022c.82-1.524 2.276-2.285 4.366-2.285 2.558 0 4.209.961 4.95 2.885.313.81.47 2.051.47 3.721V22h-1.802v-8.423c0-1.426-.152-2.495-.454-3.208-.586-1.338-1.695-2.007-3.326-2.007-1.22 0-2.138.352-2.753 1.055-.45.508-.77 1.145-.96 1.912-.19.766-.286 1.809-.286 3.127V22h-1.787zM76.834.584h1.787v17.212c0 1.025.176 1.726.527 2.102.352.376 1.006.564 1.963.564h.894V22h-.952c-1.64 0-2.754-.303-3.34-.908-.586-.606-.879-1.753-.879-3.443V.584zm8.071 15.117v-2.314c0-4.385 2.007-6.577 6.02-6.577 4.024 0 6.036 2.192 6.036 6.577V15.7c0 4.375-2.026 6.563-6.08 6.563-3.984 0-5.976-2.188-5.976-6.563zm10.254-.073v-2.153c0-3.428-1.41-5.142-4.233-5.142-2.822 0-4.234 1.714-4.234 5.142v2.153c0 3.408 1.412 5.112 4.234 5.112s4.233-1.704 4.233-5.112zm15.22-2.197v-1.29c0-1.22-.2-2.099-.6-2.636-.567-.781-1.563-1.172-2.989-1.172-1.582 0-2.856.503-3.823 1.509l-1.23-.967c1.19-1.377 2.924-2.065 5.2-2.065 2.207 0 3.725.673 4.555 2.021.264.42.445.884.542 1.392.098.507.147 1.22.147 2.138V22h-1.465l-.161-1.157a3.854 3.854 0 0 1-1.7 1.106c-.654.21-1.572.315-2.753.315-1.944 0-3.309-.323-4.095-.967-.786-.645-1.179-1.768-1.179-3.37 0-1.718.454-2.92 1.362-3.603.811-.595 2.256-.893 4.336-.893h3.853zm0 1.391h-3.735c-1.475 0-2.52.235-3.135.703-.615.47-.923 1.265-.923 2.388 0 1.055.283 1.79.85 2.205.566.415 1.582.622 3.046.622 1.748 0 2.9-.361 3.457-1.084.293-.39.44-1.103.44-2.138v-2.696zM127.547 22l-.132-1.772a1.463 1.463 0 0 0-.132.146c-.43.518-.825.889-1.186 1.113-.87.518-1.953.777-3.252.777-1.436 0-2.559-.279-3.37-.835-1.503-1.045-2.255-2.964-2.255-5.757v-2.27c0-2.051.385-3.604 1.157-4.659.937-1.289 2.412-1.933 4.424-1.933 1.045 0 1.902.148 2.57.446.67.298 1.277.808 1.824 1.531V.584h1.802V22h-1.45zm-8.54-8.51v2.109c0 3.427 1.352 5.141 4.057 5.141 2.754 0 4.131-1.704 4.131-5.112v-2.183c0-3.408-1.377-5.112-4.13-5.112-2.706 0-4.058 1.719-4.058 5.156z" fill="#FFF" fill-rule="nonzero"/></svg>