<svg width="207" height="41" xmlns="http://www.w3.org/2000/svg"><g fill="#1F3B4E" fill-rule="nonzero"><path d="M4.637 11.18V18H.945V.867H7.45c1.266 0 2.235.113 2.906.34.954.328 1.655.871 2.104 1.629.45.758.674 1.781.674 3.07 0 1.469-.24 2.588-.72 3.358-.481.77-1.272 1.31-2.374 1.623L13.742 18H9.641L6.43 11.18H4.637zm-.059-2.836h2.567c.78 0 1.347-.145 1.699-.434.422-.344.633-.953.633-1.828 0-.828-.182-1.414-.545-1.758-.364-.344-.979-.515-1.846-.515H4.578v4.535zm17.754 2.039v-.41c0-1.274-.61-1.91-1.828-1.91-.906 0-1.68.398-2.32 1.195L15.78 7.57c1.094-1.523 2.79-2.285 5.086-2.285 2.344 0 3.852.742 4.524 2.227.289.64.433 1.672.433 3.093V18h-2.73l-.211-.656c-.696.617-1.79.926-3.281.926-1.461 0-2.524-.286-3.188-.856a2.609 2.609 0 0 1-.773-1.195c-.157-.485-.235-1.121-.235-1.91 0-1.493.332-2.52.996-3.082.664-.563 1.88-.844 3.645-.844h2.285zm0 2.297h-1.84c-.648 0-1.11.117-1.383.351-.273.235-.41.63-.41 1.184 0 .531.133.904.399 1.119.265.215.734.322 1.406.322.797 0 1.328-.199 1.594-.597.156-.235.234-.688.234-1.36v-1.02zM29 3.973V.68h3.492v3.293H29zM29 18V5.555h3.492V18H29zM35.727.867h3.492v11.801c0 .984.148 1.648.445 1.992.297.344.871.516 1.723.516h.351V18h-.504c-1.289 0-2.32-.105-3.093-.316-.899-.25-1.526-.772-1.881-1.565-.356-.793-.533-2.06-.533-3.803V.867zM41.96 15.27l2.812-1.782c.32.532.7.93 1.137 1.196.656.406 1.527.609 2.613.609 1.782 0 2.672-.684 2.672-2.05 0-.696-.242-1.2-.726-1.513a2.76 2.76 0 0 0-.71-.345c-.238-.074-.95-.26-2.138-.557-1.578-.39-2.75-.922-3.516-1.594-.914-.789-1.37-1.98-1.37-3.574 0-1.703.519-2.972 1.558-3.808C45.34 1.016 46.762.598 48.559.598c2.726 0 4.632.933 5.718 2.8l-2.73 1.735c-.75-1.055-1.77-1.582-3.059-1.582-.703 0-1.248.166-1.634.498-.387.332-.58.799-.58 1.4 0 .656.224 1.16.673 1.512.45.352 1.291.68 2.526.984 1.093.274 1.855.489 2.285.645.43.156.86.375 1.289.656 1.125.742 1.687 2.016 1.687 3.82 0 1.727-.468 2.996-1.406 3.809-1.078.938-2.687 1.406-4.828 1.406-1.977 0-3.582-.386-4.816-1.16-.68-.422-1.254-1.039-1.723-1.851zM57.277 3.973V.68h3.493v3.293h-3.493zm0 14.027V5.555h3.493V18h-3.493zm6.75 0V5.555h2.625l.246.879c.649-.766 1.63-1.149 2.942-1.149 1.476 0 2.586.469 3.328 1.406.64-.937 1.742-1.406 3.305-1.406 2.117 0 3.46.8 4.03 2.402.235.649.352 1.72.352 3.211V18h-3.492v-6.738c0-.836-.066-1.469-.199-1.899-.227-.726-.687-1.09-1.383-1.09-.57 0-.978.247-1.224.739s-.37 1.304-.37 2.437V18h-3.492v-6.668c0-.906-.07-1.578-.21-2.016-.227-.695-.68-1.043-1.36-1.043-.719 0-1.191.41-1.418 1.23-.125.446-.187 1.114-.187 2.005V18h-3.493zm22.864-6.656V18h-1.993V.867h5.52c1.18 0 2.102.13 2.766.387 1.828.703 2.742 2.316 2.742 4.84 0 1.836-.488 3.199-1.465 4.09-.453.414-.994.71-1.623.89-.629.18-1.436.27-2.42.27h-3.527zm-.024-1.664h3.563c1.195 0 2.07-.29 2.625-.867.586-.61.879-1.516.879-2.72 0-1.218-.286-2.118-.856-2.7-.57-.582-1.453-.873-2.648-.873h-3.563v7.16zM99.347.867h1.91v13.301c0 .86.143 1.445.429 1.758.285.312.818.469 1.6.469h.62V18h-.703c-1.57 0-2.613-.297-3.129-.89-.484-.563-.726-1.602-.726-3.118V.867zm6.938 5.074h1.91v6.739c0 1.078.102 1.882.305 2.414.383 1 1.148 1.5 2.297 1.5.992 0 1.7-.348 2.121-1.043.422-.696.633-1.856.633-3.48V5.94h1.91V18h-1.477l-.152-1.348c-.656 1.047-1.746 1.57-3.27 1.57-2.07 0-3.378-.777-3.925-2.331-.235-.664-.352-1.672-.352-3.024V5.941zm20.836 11.122c-.75.773-1.863 1.16-3.34 1.16-1.781 0-3.035-.606-3.761-1.817-.5-.82-.75-1.996-.75-3.527v-1.816c0-1.68.308-2.946.925-3.797a3.36 3.36 0 0 1 1.442-1.178c.578-.246 1.304-.37 2.18-.37.828 0 1.515.102 2.062.305a3.799 3.799 0 0 1 1.465.997l.14-1.079h1.512v12.047c0 3.75-1.715 5.625-5.144 5.625-.993 0-1.827-.152-2.502-.457-.676-.304-1.245-.785-1.705-1.441l1.43-.867c.35.437.734.752 1.148.943.414.191.933.287 1.558.287 1.11 0 1.928-.31 2.455-.932.528-.62.81-1.607.85-2.959l.035-1.125zm-5.953-5.883v1.593c0 2.579.977 3.868 2.93 3.868 1.992 0 2.988-1.23 2.988-3.692v-1.957c0-2.46-.996-3.691-2.988-3.691-1.953 0-2.93 1.293-2.93 3.879zm12.047-7.852V.785h1.91v2.543h-1.91zm0 14.672V5.941h1.91V18h-1.91zm6.129 0V5.941h1.476l.153 1.336c.695-1.039 1.828-1.558 3.398-1.558 2.125 0 3.473.777 4.043 2.332.242.664.363 1.672.363 3.023V18h-1.91v-6.738c0-1.078-.11-1.887-.328-2.426-.398-.992-1.2-1.488-2.402-1.488-1.04 0-1.78.347-2.221 1.043-.441.695-.662 1.855-.662 3.48V18h-1.91zm12.539-2.297l1.547-1.02c.758 1.235 2.175 1.852 4.254 1.852 1.398 0 2.43-.32 3.093-.96.563-.54.844-1.243.844-2.11 0-.985-.348-1.719-1.043-2.203a3.562 3.562 0 0 0-.873-.475c-.262-.09-1.025-.295-2.29-.615-1.54-.39-2.688-.887-3.446-1.488-.969-.774-1.453-1.899-1.453-3.375 0-1.399.421-2.504 1.265-3.317.93-.89 2.258-1.336 3.985-1.336 1.148 0 2.146.184 2.994.551.847.367 1.498.902 1.95 1.605l-1.523.985c-.695-.985-1.855-1.477-3.48-1.477-1.102 0-1.934.29-2.496.868-.508.523-.762 1.195-.762 2.015 0 .875.291 1.559.873 2.05.582.493 1.604.923 3.065 1.29 1.148.281 1.922.496 2.32.645a6 6 0 0 1 1.242.656c1.07.734 1.606 1.914 1.606 3.539 0 1.453-.442 2.586-1.325 3.398-1.023.953-2.546 1.43-4.57 1.43-2.805 0-4.73-.836-5.777-2.508zm15.363-8.191h-1.465v-1.57h1.465l.094-3.844h1.816V5.94h2.356v1.57h-2.356v6.657c0 .86.143 1.445.428 1.758.285.312.818.469 1.6.469h.41V18h-.434c-1.484 0-2.488-.227-3.012-.68-.32-.28-.55-.68-.691-1.195-.14-.516-.21-1.227-.21-2.133v-6.48zm7.16 5.39v-1.851c0-1.688.336-2.95 1.008-3.785.828-1.032 2.137-1.547 3.926-1.547 2 0 3.398.601 4.195 1.804.547.82.82 1.997.82 3.528v1.851c0 1.688-.335 2.95-1.007 3.786-.828 1.023-2.16 1.535-3.996 1.535-1.946 0-3.32-.602-4.125-1.805-.547-.813-.82-1.984-.82-3.516zm8.04-.105v-1.64c0-1.321-.249-2.294-.745-2.919s-1.271-.937-2.326-.937c-1.21 0-2.059.426-2.543 1.277-.344.617-.516 1.477-.516 2.578v1.64c0 1.313.25 2.282.75 2.907s1.27.938 2.309.938c1.219 0 2.07-.426 2.555-1.278.343-.61.515-1.465.515-2.566zM188.187 18V5.941h1.5l.187 1.125c.344-.476.742-.82 1.195-1.03.453-.212 1.02-.317 1.7-.317.78 0 1.554.203 2.32.61l-.809 1.628c-.578-.375-1.14-.562-1.687-.562-.875 0-1.51.373-1.905 1.119-.394.746-.591 1.947-.591 3.603V18h-1.91zm10.675-5.637v.516c0 1.086.23 1.945.692 2.578.57.79 1.46 1.184 2.672 1.184 1.203 0 2.125-.395 2.765-1.184l1.418.902c-.476.657-1.058 1.131-1.746 1.424-.687.293-1.559.44-2.613.44-2 0-3.414-.641-4.242-1.922-.57-.875-.856-2.137-.856-3.785v-1.008c0-1.836.324-3.207.973-4.113.422-.586.937-1.008 1.547-1.266.632-.274 1.425-.41 2.379-.41 1.695 0 2.935.465 3.72 1.394.785.93 1.178 2.395 1.178 4.395v.855h-7.887zm0-1.441h6.07v-.188c0-1-.214-1.8-.644-2.402-.492-.687-1.285-1.031-2.379-1.031-1.219 0-2.058.406-2.52 1.219-.35.601-.527 1.34-.527 2.214v.188zM2.163 38v-7.139h4.17v.699h-3.35v2.475h2.856v.698H2.983v2.569h3.36V38h-4.18zm6.872 0l-1.821-5.024h.81l1.372 3.984 1.372-3.984h.806L9.753 38h-.718zm3.577-2.124v-.772c0-.703.14-1.228.42-1.577.345-.43.89-.644 1.635-.644.834 0 1.416.25 1.748.752.228.342.342.831.342 1.47v.771c0 .703-.14 1.229-.42 1.577-.345.427-.9.64-1.665.64-.81 0-1.383-.25-1.719-.752-.227-.339-.341-.827-.341-1.465zm3.35-.044v-.684c0-.55-.104-.955-.31-1.215-.208-.26-.53-.391-.97-.391-.505 0-.858.177-1.06.532-.143.257-.214.615-.214 1.074v.684c0 .547.104.95.312 1.211.208.26.529.39.962.39.508 0 .863-.177 1.064-.532.144-.254.215-.61.215-1.069zm2.472-4.97h.796v5.541c0 .358.06.603.178.733.12.13.341.195.667.195h.259V38h-.293c-.655 0-1.09-.124-1.304-.371-.202-.234-.303-.667-.303-1.299v-5.469zM22.607 38l-1.822-5.024h.81l1.373 3.984 1.372-3.984h.806L23.324 38h-.717zm4.362-2.349v.215c0 .453.096.81.288 1.074.238.33.609.494 1.114.494.5 0 .885-.165 1.152-.494l.59.376a1.731 1.731 0 0 1-.727.594c-.286.122-.65.183-1.089.183-.833 0-1.422-.267-1.767-.801-.238-.365-.357-.89-.357-1.577v-.42c0-.765.135-1.336.406-1.714.175-.244.39-.42.644-.527.264-.114.594-.171.991-.171.707 0 1.223.193 1.55.58.328.388.491.999.491 1.832v.356H26.97zm0-.6h2.53v-.078c0-.417-.09-.75-.269-1.001-.205-.287-.535-.43-.991-.43-.508 0-.858.17-1.05.508-.147.25-.22.558-.22.923v.078zm8.008-.137V38h-.83v-7.139h2.446c.427 0 .772.041 1.035.122.264.082.489.215.674.4.339.343.508.832.508 1.47 0 .58-.12 1.03-.359 1.35-.24.321-.611.529-1.116.623L38.903 38h-.918l-1.465-3.086h-1.543zm-.01-.688h1.64c.47 0 .811-.108 1.026-.323.231-.23.347-.568.347-1.01 0-.46-.119-.798-.357-1.016-.237-.218-.605-.327-1.103-.327h-1.553v2.676zm8.318.825v-.352c0-.364-.06-.63-.18-.796-.177-.24-.483-.361-.919-.361-.498 0-.898.168-1.2.503l-.548-.42c.423-.495 1.029-.742 1.817-.742.794 0 1.331.244 1.61.732.144.25.216.653.216 1.206V38h-.635l-.063-.356c-.16.166-.348.282-.564.349-.217.066-.516.1-.896.1-.645 0-1.1-.112-1.363-.335-.263-.223-.395-.608-.395-1.154 0-.61.158-1.03.473-1.26.267-.196.746-.293 1.436-.293h1.21zm0 .6h-1.133c-.443 0-.757.071-.942.213-.186.141-.279.381-.279.72 0 .319.086.54.257.664.17.124.476.186.915.186.528 0 .876-.111 1.045-.332.091-.12.137-.344.137-.67v-.78zm2.62-3.764v-1.06h.795v1.06h-.796zm0 6.113v-5.024h.795V38h-.796zm2.634-7.139h.795v5.542c0 .358.06.603.179.733s.34.195.666.195h.259V38h-.293c-.654 0-1.089-.124-1.304-.371-.202-.234-.302-.667-.302-1.299v-5.469zm2.604 6.182l.645-.425c.316.514.907.772 1.772.772.583 0 1.013-.134 1.29-.4.234-.225.351-.518.351-.88 0-.41-.145-.716-.434-.918a1.484 1.484 0 0 0-.364-.197c-.11-.038-.428-.123-.955-.257-.641-.162-1.12-.37-1.435-.62-.404-.322-.606-.79-.606-1.406 0-.583.176-1.043.527-1.382.388-.371.941-.557 1.66-.557.48 0 .895.077 1.248.23.353.153.624.376.813.669l-.635.41c-.29-.41-.773-.615-1.45-.615-.459 0-.805.12-1.04.361-.211.218-.317.498-.317.84 0 .365.121.65.364.854.242.206.668.385 1.276.538.479.117.801.206.967.268a2.5 2.5 0 0 1 .518.274c.446.306.669.797.669 1.474 0 .606-.184 1.078-.552 1.416-.426.397-1.061.596-1.904.596-1.169 0-1.971-.348-2.408-1.045zm6.414-5.156v-1.06h.796v1.06h-.796zm0 6.113v-5.024h.796V38h-.796zm2.654 0v-5.024h.615l.063.556c.274-.433.712-.65 1.314-.65.713 0 1.194.271 1.445.811.287-.54.786-.81 1.5-.81.849 0 1.384.324 1.606.971.094.28.141.7.141 1.26V38H66.1v-2.808c0-.446-.04-.78-.122-1.005-.153-.417-.46-.625-.923-.625-.39 0-.672.144-.844.432-.173.288-.26.757-.26 1.408V38h-.795v-2.808c0-.446-.04-.78-.122-1.005-.153-.417-.46-.625-.923-.625-.397 0-.68.144-.85.434-.169.29-.253.773-.253 1.45V38h-.796zm7.946-4.76l.362-2.379h.85l-.552 2.378h-.66zm2.034 4.076l.576-.38c.18.185.367.314.564.388.197.073.46.11.789.11.846 0 1.27-.28 1.27-.84 0-.3-.115-.506-.343-.62-.156-.078-.465-.148-.927-.21a4.837 4.837 0 0 1-.796-.164 1.316 1.316 0 0 1-.454-.246c-.267-.228-.4-.555-.4-.982 0-.482.144-.851.434-1.108.283-.254.693-.381 1.23-.381.423 0 .782.065 1.077.195.295.13.541.332.74.606l-.596.36a1.406 1.406 0 0 0-.498-.387 1.67 1.67 0 0 0-.664-.115c-.306 0-.539.063-.698.19-.176.14-.264.339-.264.596 0 .27.104.464.312.581.144.082.407.147.791.195.678.092 1.135.223 1.373.396.299.218.449.59.449 1.118 0 .983-.67 1.475-2.007 1.475-.95 0-1.603-.259-1.958-.777zm10.517-.376l.596.362c-.38.527-.955.79-1.724.79-1.35 0-2.026-.779-2.026-2.338v-.42c0-.781.14-1.366.42-1.753.338-.465.864-.698 1.577-.698.772 0 1.323.272 1.655.815l-.61.347a1.309 1.309 0 0 0-.43-.39 1.244 1.244 0 0 0-.566-.113c-.495 0-.843.197-1.045.59-.137.268-.205.65-.205 1.148v.552c0 1.068.425 1.602 1.274 1.602.463 0 .824-.165 1.084-.494zm1.756-1.064v-.772c0-.703.14-1.228.42-1.577.345-.43.89-.644 1.635-.644.834 0 1.416.25 1.748.752.228.342.342.831.342 1.47v.771c0 .703-.14 1.229-.42 1.577-.345.427-.9.64-1.665.64-.81 0-1.383-.25-1.719-.752-.227-.339-.341-.827-.341-1.465zm3.35-.044v-.684c0-.55-.104-.955-.31-1.215-.208-.26-.53-.391-.97-.391-.505 0-.858.177-1.06.532-.143.257-.215.615-.215 1.074v.684c0 .547.105.95.313 1.211.208.26.529.39.962.39.508 0 .863-.177 1.064-.532.144-.254.215-.61.215-1.069zM88.305 38v-5.024h.615l.063.556c.274-.433.712-.65 1.314-.65.713 0 1.195.271 1.445.811.287-.54.786-.81 1.5-.81.849 0 1.384.324 1.606.971.094.28.141.7.141 1.26V38h-.796v-2.808c0-.446-.04-.78-.122-1.005-.153-.417-.46-.625-.922-.625-.391 0-.673.144-.845.432-.173.288-.259.757-.259 1.408V38h-.796v-2.808c0-.446-.04-.78-.122-1.005-.153-.417-.46-.625-.923-.625-.397 0-.68.144-.85.434-.169.29-.253.773-.253 1.45V38h-.796zm8.503 0v-5.024h.615l.064.556c.273-.433.711-.65 1.313-.65.713 0 1.195.271 1.446.811.286-.54.786-.81 1.499-.81.85 0 1.385.324 1.606.971.094.28.142.7.142 1.26V38h-.796v-2.808c0-.446-.04-.78-.122-1.005-.153-.417-.46-.625-.923-.625-.39 0-.672.144-.845.432-.172.288-.259.757-.259 1.408V38h-.796v-2.808c0-.446-.04-.78-.122-1.005-.153-.417-.46-.625-.923-.625-.397 0-.68.144-.85.434-.168.29-.253.773-.253 1.45V38h-.796zm8.46-5.024h.795v2.807c0 .45.043.785.127 1.006.16.417.479.625.957.625.414 0 .708-.145.884-.435.176-.29.264-.773.264-1.45v-2.553h.796V38h-.616l-.063-.562c-.273.437-.728.655-1.362.655-.863 0-1.408-.324-1.636-.972-.098-.277-.147-.697-.147-1.26v-2.885zm5.69 5.024v-5.024h.616l.063.556c.29-.433.762-.65 1.416-.65.885 0 1.447.325 1.685.972.1.277.15.697.15 1.26V38h-.795v-2.808c0-.449-.046-.786-.137-1.01-.166-.414-.5-.62-1-.62-.434 0-.742.144-.926.434-.184.29-.276.773-.276 1.45V38h-.796zm5.75-6.113v-1.06h.796v1.06h-.796zm0 6.113v-5.024h.796V38h-.796zm2.815-4.37h-.61v-.654h.61l.039-1.602h.756v1.602h.982v.654h-.982v2.773c0 .358.06.603.179.733.118.13.34.195.666.195h.171V38h-.18c-.62 0-1.037-.094-1.255-.283a.988.988 0 0 1-.289-.498c-.058-.215-.087-.511-.087-.889v-2.7zm4.777 4.36l-1.85-5.014h.8l1.465 4.126 1.309-4.126h.81l-1.982 5.835c-.13.384-.263.68-.398.886-.135.206-.289.349-.461.427-.254.117-.643.176-1.167.176v-.67c.38-.002.646-.06.796-.17.15-.11.29-.353.424-.728l.254-.742zm6.055-4.36h-.61v-.654h.61l.039-1.602h.757v1.602h.981v.654h-.981v2.773c0 .358.06.603.178.733.119.13.34.195.666.195h.171V38h-.18c-.619 0-1.037-.094-1.255-.283a.988.988 0 0 1-.288-.498c-.059-.215-.088-.511-.088-.889v-2.7zm3.083 2.246v-.772c0-.703.14-1.228.42-1.577.345-.43.89-.644 1.636-.644.833 0 1.416.25 1.748.752.228.342.342.831.342 1.47v.771c0 .703-.14 1.229-.42 1.577-.345.427-.9.64-1.665.64-.81 0-1.384-.25-1.719-.752-.228-.339-.342-.827-.342-1.465zm3.35-.044v-.684c0-.55-.104-.955-.31-1.215-.207-.26-.53-.391-.97-.391-.504 0-.857.177-1.06.532-.142.257-.214.615-.214 1.074v.684c0 .547.104.95.313 1.211.208.26.529.39.961.39.508 0 .863-.177 1.065-.532.143-.254.215-.61.215-1.069zm4.755-2.202h-.61v-.654h.61l.04-1.602h.756v1.602h.982v.654h-.982v2.773c0 .358.06.603.179.733.118.13.34.195.666.195h.171V38h-.18c-.62 0-1.037-.094-1.256-.283a.988.988 0 0 1-.288-.498c-.058-.215-.088-.511-.088-.889v-2.7zm3.304 4.37v-7.139h.795v2.515c.293-.329.731-.493 1.314-.493.876 0 1.432.324 1.67.971.1.277.151.697.151 1.26V38h-.796v-2.808c0-.449-.045-.786-.136-1.01-.166-.414-.5-.62-1.001-.62-.427 0-.734.144-.92.432-.188.288-.282.759-.282 1.413V38h-.795zm6.379-2.349v.215c0 .453.096.81.288 1.074.238.33.609.494 1.113.494.502 0 .886-.165 1.153-.494l.59.376a1.731 1.731 0 0 1-.727.594c-.287.122-.65.183-1.089.183-.833 0-1.423-.267-1.768-.801-.237-.365-.356-.89-.356-1.577v-.42c0-.765.135-1.336.405-1.714.176-.244.39-.42.645-.527.263-.114.594-.171.991-.171.706 0 1.223.193 1.55.58.327.388.491.999.491 1.832v.356h-3.286zm0-.6h2.53v-.078c0-.417-.09-.75-.27-1.001-.204-.287-.535-.43-.99-.43-.508 0-.858.17-1.05.508-.147.25-.22.558-.22.923v.078zM158.238 38v-5.024h.616l.063.556c.29-.433.762-.65 1.416-.65.886 0 1.447.325 1.685.972.1.277.151.697.151 1.26V38h-.796v-2.808c0-.449-.045-.786-.137-1.01-.166-.414-.5-.62-1-.62-.433 0-.742.144-.926.434-.184.29-.276.773-.276 1.45V38h-.796zm6.38-2.349v.215c0 .453.096.81.288 1.074.237.33.608.494 1.113.494.501 0 .885-.165 1.152-.494l.591.376a1.731 1.731 0 0 1-.727.594c-.287.122-.65.183-1.09.183-.833 0-1.422-.267-1.767-.801-.237-.365-.356-.89-.356-1.577v-.42c0-.765.135-1.336.405-1.714.176-.244.39-.42.645-.527.263-.114.594-.171.99-.171.707 0 1.224.193 1.551.58.327.388.49.999.49 1.832v.356h-3.285zm0-.6h2.529v-.078c0-.417-.09-.75-.269-1.001-.205-.287-.535-.43-.99-.43-.509 0-.859.17-1.05.508-.147.25-.22.558-.22.923v.078zm5.886.376L169 32.976h.898l1.128 1.84 1.123-1.84h.865l-1.592 2.48L172.984 38h-.898l-1.182-1.919L169.737 38h-.869l1.636-2.573zm3.923-1.797h-.61v-.654h.61l.04-1.602h.756v1.602h.981v.654h-.981v2.773c0 .358.06.603.178.733.119.13.341.195.667.195h.17V38h-.18c-.619 0-1.037-.094-1.255-.283a.988.988 0 0 1-.288-.498c-.059-.215-.088-.511-.088-.889v-2.7zm4.785 3.686l.576-.38c.18.185.367.314.564.388.197.073.46.11.789.11.846 0 1.27-.28 1.27-.84 0-.3-.115-.506-.343-.62-.156-.078-.465-.148-.927-.21a4.837 4.837 0 0 1-.796-.164 1.316 1.316 0 0 1-.454-.246c-.267-.228-.4-.555-.4-.982 0-.482.144-.851.434-1.108.283-.254.693-.381 1.23-.381.424 0 .782.065 1.077.195.295.13.541.332.74.606l-.596.36a1.406 1.406 0 0 0-.498-.387 1.67 1.67 0 0 0-.664-.115c-.306 0-.539.063-.698.19-.176.14-.264.339-.264.596 0 .27.104.464.313.581.143.082.406.147.79.195.678.092 1.135.223 1.373.396.3.218.449.59.449 1.118 0 .983-.67 1.475-2.007 1.475-.95 0-1.603-.259-1.958-.777zm5.715-3.686h-.61v-.654h.61l.04-1.602h.756v1.602h.982v.654h-.982v2.773c0 .358.06.603.178.733.12.13.341.195.667.195h.17V38h-.18c-.618 0-1.037-.094-1.255-.283a.988.988 0 0 1-.288-.498c-.058-.215-.088-.511-.088-.889v-2.7zm6.184 1.42v-.35c0-.365-.06-.63-.18-.797-.176-.24-.482-.361-.918-.361-.498 0-.899.168-1.202.503l-.546-.42c.423-.495 1.028-.742 1.816-.742.794 0 1.331.244 1.611.732.144.25.215.653.215 1.206V38h-.635l-.063-.356c-.16.166-.348.282-.564.349-.217.066-.515.1-.896.1-.645 0-1.099-.112-1.362-.335-.264-.223-.396-.608-.396-1.154 0-.61.158-1.03.474-1.26.267-.196.745-.293 1.435-.293h1.211zm0 .601h-1.133c-.442 0-.756.071-.942.213-.186.141-.278.381-.278.72 0 .319.085.54.256.664.171.124.476.186.916.186.527 0 .875-.111 1.045-.332.09-.12.136-.344.136-.67v-.78zm5.706 1.958c-.313.323-.777.484-1.392.484-.742 0-1.265-.253-1.567-.757-.209-.342-.313-.832-.313-1.47v-.757c0-.7.129-1.227.386-1.582a1.4 1.4 0 0 1 .6-.49c.241-.103.544-.154.909-.154.345 0 .631.042.86.127.227.084.43.223.61.415l.058-.45h.63v5.02c0 1.563-.715 2.344-2.144 2.344-.413 0-.76-.064-1.042-.19a1.731 1.731 0 0 1-.71-.601l.595-.361c.147.182.306.313.479.393.172.08.389.12.65.12.461 0 .802-.13 1.022-.389.22-.259.338-.67.354-1.233l.015-.469zm-2.48-2.45v.663c0 1.074.406 1.612 1.22 1.612.83 0 1.245-.513 1.245-1.538v-.816c0-1.025-.415-1.538-1.245-1.538-.814 0-1.22.539-1.22 1.616zm5.72.492v.215c0 .453.095.81.287 1.074.238.33.61.494 1.114.494.501 0 .885-.165 1.152-.494l.59.376a1.731 1.731 0 0 1-.727.594c-.286.122-.65.183-1.089.183-.833 0-1.422-.267-1.767-.801-.238-.365-.357-.89-.357-1.577v-.42c0-.765.136-1.336.406-1.714.176-.244.39-.42.644-.527.264-.114.594-.171.991-.171.707 0 1.224.193 1.55.58.328.388.491.999.491 1.832v.356h-3.286zm0-.6h2.529v-.078c0-.417-.09-.75-.269-1.001-.205-.287-.535-.43-.991-.43-.508 0-.858.17-1.05.508-.146.25-.22.558-.22.923v.078zm4.9 2.949v-.996h.83V38h-.83z"/></g></svg>